 <svg xmlns="http://www.w3.org/2000/svg" width="1920" height="627" viewBox="0 0 1920 627">
        <g fill="#FFF" fill-rule="evenodd" transform="translate(-311 -2)">
          <g fill-rule="nonzero" opacity=".138" transform="translate(354)">
            <path
              d="M22.1007559,282 L10.8989483,282 C7.09487052,282 4,285.095018 4,288.899096 L4,300.100904 C4,303.905129 7.09487052,307 10.8989483,307 L22.1007559,307 C25.9051295,307 29,303.904982 29,300.100904 L29,288.899096 C29.0001479,285.095018 25.9051295,282 22.1007559,282 Z M26.7820267,300.100904 C26.7820267,302.682057 24.6820575,304.781879 22.1009038,304.781879 L10.8989483,304.781879 C8.31794253,304.782027 6.21812116,302.682057 6.21812116,300.100904 L6.21812116,288.899096 C6.21812116,286.31809 8.31794253,284.218121 10.8989483,284.218121 L22.1007559,284.218121 C24.6819096,284.218121 26.7818788,286.31809 26.7818788,288.899096 L26.7818788,300.100904 L26.7820267,300.100904 Z M16.5,288.058428 C12.9479008,288.058428 10.0581325,290.948197 10.0581325,294.500296 C10.0581325,298.052247 12.9479008,300.941867 16.5,300.941867 C20.0520992,300.941867 22.9418675,298.052247 22.9418675,294.500296 C22.9418675,290.948197 20.0520992,288.058428 16.5,288.058428 Z M16.5,298.723598 C14.1711207,298.723598 12.2762537,296.829027 12.2762537,294.500148 C12.2762537,292.171121 14.1709728,290.276402 16.5,290.276402 C18.8290272,290.276402 20.7237463,292.171121 20.7237463,294.500148 C20.7237463,296.829027 18.8288793,298.723598 16.5,298.723598 Z M23.2120346,286.177609 C22.7846766,286.177609 22.3648602,286.350623 22.0630479,286.653766 C21.7597568,286.955431 21.5854125,287.375395 21.5854125,287.804232 C21.5854125,288.231737 21.7599047,288.651554 22.0630479,288.954697 C22.3647124,289.256362 22.7846766,289.430854 23.2120346,289.430854 C23.6408714,289.430854 24.0593569,289.256362 24.3625001,288.954697 C24.6656434,288.651554 24.8386568,288.23159 24.8386568,287.804232 C24.8386568,287.375395 24.6656434,286.955431 24.3625001,286.653766 C24.0608357,286.350623 23.6408714,286.177609 23.2120346,286.177609 Z"
              transform="rotate(-18 16.5 -3394.5)"
            />
            <path
              d="M387.237179,4 L369.762359,4 C363.827998,4 359,8.8282287 359,14.7625901 L359,32.2374099 C359,38.172002 363.827998,43 369.762359,43 L387.237179,43 C393.172002,43 398,38.1717713 398,32.2374099 L398,14.7625901 C398.000231,8.8282287 393.172002,4 387.237179,4 Z M394.539962,32.2374099 C394.539962,36.2640097 391.26401,39.539731 387.23741,39.539731 L369.762359,39.539731 C365.73599,39.5399617 362.460269,36.2640097 362.460269,32.2374099 L362.460269,14.7625901 C362.460269,10.736221 365.73599,7.46026901 369.762359,7.46026901 L387.237179,7.46026901 C391.263779,7.46026901 394.539731,10.736221 394.539731,14.7625901 L394.539731,32.2374099 L394.539962,32.2374099 Z M378.5,13.4511481 C372.958725,13.4511481 368.450687,17.9591866 368.450687,23.5004614 C368.450687,29.0415055 372.958725,33.5493133 378.5,33.5493133 C384.041275,33.5493133 388.549313,29.0415055 388.549313,23.5004614 C388.549313,17.9591866 384.041275,13.4511481 378.5,13.4511481 Z M378.5,30.0888136 C374.866948,30.0888136 371.910956,27.1332825 371.910956,23.5002307 C371.910956,19.8669482 374.866718,16.9111864 378.5,16.9111864 C382.133282,16.9111864 385.089044,19.8669482 385.089044,23.5002307 C385.089044,27.1332825 382.133052,30.0888136 378.5,30.0888136 Z M388.970774,10.5170707 C388.304096,10.5170707 387.649182,10.7869716 387.178355,11.2598751 C386.705221,11.7304717 386.433243,12.3856159 386.433243,13.0546013 C386.433243,13.7215105 386.705451,14.376424 387.178355,14.8493275 C387.648951,15.3199241 388.304096,15.5921319 388.970774,15.5921319 C389.639759,15.5921319 390.292597,15.3199241 390.7655,14.8493275 C391.238404,14.376424 391.508305,13.7212798 391.508305,13.0546013 C391.508305,12.3856159 391.238404,11.7304717 390.7655,11.2598751 C390.294904,10.7869716 389.639759,10.5170707 388.970774,10.5170707 Z"
              transform="rotate(-10 708.5 1223.5)"
            />
            <path
              d="M387.237179,4 L369.762359,4 C363.827998,4 359,8.8282287 359,14.7625901 L359,32.2374099 C359,38.172002 363.827998,43 369.762359,43 L387.237179,43 C393.172002,43 398,38.1717713 398,32.2374099 L398,14.7625901 C398.000231,8.8282287 393.172002,4 387.237179,4 Z M394.539962,32.2374099 C394.539962,36.2640097 391.26401,39.539731 387.23741,39.539731 L369.762359,39.539731 C365.73599,39.5399617 362.460269,36.2640097 362.460269,32.2374099 L362.460269,14.7625901 C362.460269,10.736221 365.73599,7.46026901 369.762359,7.46026901 L387.237179,7.46026901 C391.263779,7.46026901 394.539731,10.736221 394.539731,14.7625901 L394.539731,32.2374099 L394.539962,32.2374099 Z M378.5,13.4511481 C372.958725,13.4511481 368.450687,17.9591866 368.450687,23.5004614 C368.450687,29.0415055 372.958725,33.5493133 378.5,33.5493133 C384.041275,33.5493133 388.549313,29.0415055 388.549313,23.5004614 C388.549313,17.9591866 384.041275,13.4511481 378.5,13.4511481 Z M378.5,30.0888136 C374.866948,30.0888136 371.910956,27.1332825 371.910956,23.5002307 C371.910956,19.8669482 374.866718,16.9111864 378.5,16.9111864 C382.133282,16.9111864 385.089044,19.8669482 385.089044,23.5002307 C385.089044,27.1332825 382.133052,30.0888136 378.5,30.0888136 Z M388.970774,10.5170707 C388.304096,10.5170707 387.649182,10.7869716 387.178355,11.2598751 C386.705221,11.7304717 386.433243,12.3856159 386.433243,13.0546013 C386.433243,13.7215105 386.705451,14.376424 387.178355,14.8493275 C387.648951,15.3199241 388.304096,15.5921319 388.970774,15.5921319 C389.639759,15.5921319 390.292597,15.3199241 390.7655,14.8493275 C391.238404,14.376424 391.508305,13.7212798 391.508305,13.0546013 C391.508305,12.3856159 391.238404,11.7304717 390.7655,11.2598751 C390.294904,10.7869716 389.639759,10.5170707 388.970774,10.5170707 Z"
              transform="rotate(-10 2508.5 -2523.5)"
            />
            <path
              d="M1493.46117,229.879814 L1473.29792,229.879814 C1466.45058,229.879814 1460.87981,235.450847 1460.87981,242.298187 L1460.87981,262.461441 C1460.87981,269.309047 1466.45058,274.879814 1473.29792,274.879814 L1493.46117,274.879814 C1500.30905,274.879814 1505.87981,269.308781 1505.87981,262.461441 L1505.87981,242.298187 C1505.88008,235.450847 1500.30905,229.879814 1493.46117,229.879814 Z M1501.88746,262.461441 C1501.88746,267.107517 1498.10752,270.887196 1493.46144,270.887196 L1473.29792,270.887196 C1468.65211,270.887462 1464.87243,267.107517 1464.87243,262.461441 L1464.87243,242.298187 C1464.87243,237.652377 1468.65211,233.872432 1473.29792,233.872432 L1493.46117,233.872432 C1498.10725,233.872432 1501.8872,237.652377 1501.8872,242.298187 L1501.8872,262.461441 L1501.88746,262.461441 Z M1483.37981,240.784985 C1476.98604,240.784985 1471.78445,245.986568 1471.78445,252.380346 C1471.78445,258.773859 1476.98604,263.975175 1483.37981,263.975175 C1489.77359,263.975175 1494.97518,258.773859 1494.97518,252.380346 C1494.97518,245.986568 1489.77359,240.784985 1483.37981,240.784985 Z M1483.37981,259.982291 C1479.18783,259.982291 1475.77707,256.572063 1475.77707,252.38008 C1475.77707,248.187831 1479.18757,244.777337 1483.37981,244.777337 C1487.57206,244.777337 1490.98256,248.187831 1490.98256,252.38008 C1490.98256,256.572063 1487.5718,259.982291 1483.37981,259.982291 Z M1495.46148,237.399511 C1494.69223,237.399511 1493.93656,237.710935 1493.3933,238.256593 C1492.84738,238.799589 1492.53356,239.555525 1492.53356,240.327431 C1492.53356,241.096941 1492.84764,241.852611 1493.3933,242.398269 C1493.9363,242.941265 1494.69223,243.255351 1495.46148,243.255351 C1496.23338,243.255351 1496.98666,242.941265 1497.53231,242.398269 C1498.07797,241.852611 1498.3894,241.096675 1498.3894,240.327431 C1498.3894,239.555525 1498.07797,238.799589 1497.53231,238.256593 C1496.98932,237.710935 1496.23338,237.399511 1495.46148,237.399511 Z"
              transform="rotate(11 783.38 -852.38)"
            />

            <path
              d="M1493.46117,229.879814 L1473.29792,229.879814 C1466.45058,229.879814 1460.87981,235.450847 1460.87981,242.298187 L1460.87981,262.461441 C1460.87981,269.309047 1466.45058,274.879814 1473.29792,274.879814 L1493.46117,274.879814 C1500.30905,274.879814 1505.87981,269.308781 1505.87981,262.461441 L1505.87981,242.298187 C1505.88008,235.450847 1500.30905,229.879814 1493.46117,229.879814 Z M1501.88746,262.461441 C1501.88746,267.107517 1498.10752,270.887196 1493.46144,270.887196 L1473.29792,270.887196 C1468.65211,270.887462 1464.87243,267.107517 1464.87243,262.461441 L1464.87243,242.298187 C1464.87243,237.652377 1468.65211,233.872432 1473.29792,233.872432 L1493.46117,233.872432 C1498.10725,233.872432 1501.8872,237.652377 1501.8872,242.298187 L1501.8872,262.461441 L1501.88746,262.461441 Z M1483.37981,240.784985 C1476.98604,240.784985 1471.78445,245.986568 1471.78445,252.380346 C1471.78445,258.773859 1476.98604,263.975175 1483.37981,263.975175 C1489.77359,263.975175 1494.97518,258.773859 1494.97518,252.380346 C1494.97518,245.986568 1489.77359,240.784985 1483.37981,240.784985 Z M1483.37981,259.982291 C1479.18783,259.982291 1475.77707,256.572063 1475.77707,252.38008 C1475.77707,248.187831 1479.18757,244.777337 1483.37981,244.777337 C1487.57206,244.777337 1490.98256,248.187831 1490.98256,252.38008 C1490.98256,256.572063 1487.5718,259.982291 1483.37981,259.982291 Z M1495.46148,237.399511 C1494.69223,237.399511 1493.93656,237.710935 1493.3933,238.256593 C1492.84738,238.799589 1492.53356,239.555525 1492.53356,240.327431 C1492.53356,241.096941 1492.84764,241.852611 1493.3933,242.398269 C1493.9363,242.941265 1494.69223,243.255351 1495.46148,243.255351 C1496.23338,243.255351 1496.98666,242.941265 1497.53231,242.398269 C1498.07797,241.852611 1498.3894,241.096675 1498.3894,240.327431 C1498.3894,239.555525 1498.07797,238.799589 1497.53231,238.256593 C1496.98932,237.710935 1496.23338,237.399511 1495.46148,237.399511 Z"
              transform="rotate(11 1483.38 -1152.38)"
            />

            <path
              d="M222.341058,235 L206.658528,235 C201.332819,235 197,239.333026 197,244.658735 L197,260.341265 C197,265.667181 201.332819,270 206.658528,270 L222.341058,270 C227.667181,270 232,265.666974 232,260.341265 L232,244.658735 C232.000207,239.333026 227.667181,235 222.341058,235 Z M228.894837,260.341265 C228.894837,263.95488 225.95488,266.89463 222.341265,266.89463 L206.658528,266.89463 C203.04512,266.894837 200.10537,263.95488 200.10537,260.341265 L200.10537,244.658735 C200.10537,241.045327 203.04512,238.10537 206.658528,238.10537 L222.341058,238.10537 C225.954673,238.10537 228.89463,241.045327 228.89463,244.658735 L228.89463,260.341265 L228.894837,260.341265 Z M214.5,243.4818 C209.527061,243.4818 205.481386,247.527475 205.481386,252.500414 C205.481386,257.473146 209.527061,261.518614 214.5,261.518614 C219.472939,261.518614 223.518614,257.473146 223.518614,252.500414 C223.518614,247.527475 219.472939,243.4818 214.5,243.4818 Z M214.5,258.413038 C211.239569,258.413038 208.586755,255.760638 208.586755,252.500207 C208.586755,249.239569 211.239362,246.586962 214.5,246.586962 C217.760638,246.586962 220.413245,249.239569 220.413245,252.500207 C220.413245,255.760638 217.760431,258.413038 214.5,258.413038 Z M223.896848,240.848653 C223.298547,240.848653 222.710804,241.090872 222.288267,241.515273 C221.863659,241.937603 221.619577,242.525553 221.619577,243.125924 C221.619577,243.724432 221.863867,244.312175 222.288267,244.736576 C222.710597,245.158906 223.298547,245.403195 223.896848,245.403195 C224.49722,245.403195 225.0831,245.158906 225.5075,244.736576 C225.931901,244.312175 226.17412,243.724225 226.17412,243.125924 C226.17412,242.525553 225.931901,241.937603 225.5075,241.515273 C225.08517,241.090872 224.49722,240.848653 223.896848,240.848653 Z"
              transform="rotate(11 883.38 4552.38)"
            />

            <path
              d="M1634.66232,12.1210555 L1626.90105,12.1210555 C1624.26536,12.1210555 1622.12106,14.2654659 1622.12106,16.9011542 L1622.12106,24.6624239 C1622.12106,27.2982147 1624.26536,29.4425226 1626.90105,29.4425226 L1634.66232,29.4425226 C1637.29821,29.4425226 1639.44252,27.2981123 1639.44252,24.6624239 L1639.44252,16.9011542 C1639.44263,14.2654659 1637.29821,12.1210555 1634.66232,12.1210555 Z M1637.90578,24.6624239 C1637.90578,26.4507986 1636.4508,27.9056781 1634.66242,27.9056781 L1626.90105,27.9056781 C1625.11278,27.9057806 1623.6579,26.4507986 1623.6579,24.6624239 L1623.6579,16.9011542 C1623.6579,15.1128819 1625.11278,13.6579 1626.90105,13.6579 L1634.66232,13.6579 C1636.4507,13.6579 1637.90568,15.1128819 1637.90568,16.9011542 L1637.90568,24.6624239 L1637.90578,24.6624239 Z M1630.78179,16.3186901 C1628.32069,16.3186901 1626.31849,18.3208912 1626.31849,20.781994 C1626.31849,23.2429943 1628.32069,25.2450929 1630.78179,25.2450929 C1633.24289,25.2450929 1635.24509,23.2429943 1635.24509,20.781994 C1635.24509,18.3208912 1633.24289,16.3186901 1630.78179,16.3186901 Z M1630.78179,23.7081459 C1629.1682,23.7081459 1627.85533,22.3954758 1627.85533,20.7818915 C1627.85533,19.1682048 1629.1681,17.8554322 1630.78179,17.8554322 C1632.39548,17.8554322 1633.70825,19.1682048 1633.70825,20.7818915 C1633.70825,22.3954758 1632.39537,23.7081459 1630.78179,23.7081459 Z M1635.43228,15.0155484 C1635.13618,15.0155484 1634.84531,15.1354223 1634.6362,15.3454577 C1634.42606,15.5544686 1634.30526,15.8454445 1634.30526,16.1425678 C1634.30526,16.4387689 1634.42616,16.7296424 1634.6362,16.9396778 C1634.84521,17.1486886 1635.13618,17.2695871 1635.43228,17.2695871 C1635.7294,17.2695871 1636.01936,17.1486886 1636.22939,16.9396778 C1636.43943,16.7296424 1636.5593,16.4386665 1636.5593,16.1425678 C1636.5593,15.8454445 1636.43943,15.5544686 1636.22939,15.3454577 C1636.02038,15.1354223 1635.7294,15.0155484 1635.43228,15.0155484 Z"
              transform="rotate(-8 1630.782 20.782)"
            />
            <path
              d="M1553.66232,134.121055 L1545.90105,134.121055 C1543.26536,134.121055 1541.12106,136.265466 1541.12106,138.901154 L1541.12106,146.662424 C1541.12106,149.298215 1543.26536,151.442523 1545.90105,151.442523 L1553.66232,151.442523 C1556.29821,151.442523 1558.44252,149.298112 1558.44252,146.662424 L1558.44252,138.901154 C1558.44263,136.265466 1556.29821,134.121055 1553.66232,134.121055 Z M1556.90578,146.662424 C1556.90578,148.450799 1555.4508,149.905678 1553.66242,149.905678 L1545.90105,149.905678 C1544.11278,149.905781 1542.6579,148.450799 1542.6579,146.662424 L1542.6579,138.901154 C1542.6579,137.112882 1544.11278,135.6579 1545.90105,135.6579 L1553.66232,135.6579 C1555.4507,135.6579 1556.90568,137.112882 1556.90568,138.901154 L1556.90568,146.662424 L1556.90578,146.662424 Z M1549.78179,138.31869 C1547.32069,138.31869 1545.31849,140.320891 1545.31849,142.781994 C1545.31849,145.242994 1547.32069,147.245093 1549.78179,147.245093 C1552.24289,147.245093 1554.24509,145.242994 1554.24509,142.781994 C1554.24509,140.320891 1552.24289,138.31869 1549.78179,138.31869 Z M1549.78179,145.708146 C1548.1682,145.708146 1546.85533,144.395476 1546.85533,142.781892 C1546.85533,141.168205 1548.1681,139.855432 1549.78179,139.855432 C1551.39548,139.855432 1552.70825,141.168205 1552.70825,142.781892 C1552.70825,144.395476 1551.39537,145.708146 1549.78179,145.708146 Z M1554.43228,137.015548 C1554.13618,137.015548 1553.84531,137.135422 1553.6362,137.345458 C1553.42606,137.554469 1553.30526,137.845444 1553.30526,138.142568 C1553.30526,138.438769 1553.42616,138.729642 1553.6362,138.939678 C1553.84521,139.148689 1554.13618,139.269587 1554.43228,139.269587 C1554.7294,139.269587 1555.01936,139.148689 1555.22939,138.939678 C1555.43943,138.729642 1555.5593,138.438666 1555.5593,138.142568 C1555.5593,137.845444 1555.43943,137.554469 1555.22939,137.345458 C1555.02038,137.135422 1554.7294,137.015548 1554.43228,137.015548 Z"
              transform="rotate(-8 1549.782 142.782)"
            />
            <path
              d="M1734.25621,153.155452 L1723.0544,153.155452 C1719.25032,153.155452 1716.15545,156.250471 1716.15545,160.054548 L1716.15545,171.256356 C1716.15545,175.060582 1719.25032,178.155452 1723.0544,178.155452 L1734.25621,178.155452 C1738.06058,178.155452 1741.15545,175.060434 1741.15545,171.256356 L1741.15545,160.054548 C1741.1556,156.250471 1738.06058,153.155452 1734.25621,153.155452 Z M1738.93748,171.256356 C1738.93748,173.83751 1736.83751,175.937331 1734.25636,175.937331 L1723.0544,175.937331 C1720.47339,175.937479 1718.37357,173.83751 1718.37357,171.256356 L1718.37357,160.054548 C1718.37357,157.473543 1720.47339,155.373573 1723.0544,155.373573 L1734.25621,155.373573 C1736.83736,155.373573 1738.93733,157.473543 1738.93733,160.054548 L1738.93733,171.256356 L1738.93748,171.256356 Z M1728.65545,159.213881 C1725.10335,159.213881 1722.21358,162.103649 1722.21358,165.655748 C1722.21358,169.207699 1725.10335,172.09732 1728.65545,172.09732 C1732.20755,172.09732 1735.09732,169.207699 1735.09732,165.655748 C1735.09732,162.103649 1732.20755,159.213881 1728.65545,159.213881 Z M1728.65545,169.879051 C1726.32657,169.879051 1724.43171,167.984479 1724.43171,165.6556 C1724.43171,163.326573 1726.32643,161.431854 1728.65545,161.431854 C1730.98448,161.431854 1732.8792,163.326573 1732.8792,165.6556 C1732.8792,167.984479 1730.98433,169.879051 1728.65545,169.879051 Z M1735.36749,157.333062 C1734.94013,157.333062 1734.52031,157.506075 1734.2185,157.809218 C1733.91521,158.110883 1733.74086,158.530847 1733.74086,158.959684 C1733.74086,159.38719 1733.91536,159.807006 1734.2185,160.110149 C1734.52016,160.411814 1734.94013,160.586306 1735.36749,160.586306 C1735.79632,160.586306 1736.21481,160.411814 1736.51795,160.110149 C1736.8211,159.807006 1736.99411,159.387042 1736.99411,158.959684 C1736.99411,158.530847 1736.8211,158.110883 1736.51795,157.809218 C1736.21629,157.506075 1735.79632,157.333062 1735.36749,157.333062 Z"
              transform="rotate(11 1728.655 165.655)"
            />
            <path
              d="M995.100756,34 L983.898948,34 C980.094871,34 977,37.0950184 977,40.8990962 L977,52.1009038 C977,55.9051295 980.094871,59 983.898948,59 L995.100756,59 C998.905129,59 1002,55.9049816 1002,52.1009038 L1002,40.8990962 C1002.00015,37.0950184 998.905129,34 995.100756,34 Z M999.782027,52.1009038 C999.782027,54.6820575 997.682057,56.7818788 995.100904,56.7818788 L983.898948,56.7818788 C981.317943,56.7820267 979.218121,54.6820575 979.218121,52.1009038 L979.218121,40.8990962 C979.218121,38.3180904 981.317943,36.2181212 983.898948,36.2181212 L995.100756,36.2181212 C997.68191,36.2181212 999.781879,38.3180904 999.781879,40.8990962 L999.781879,52.1009038 L999.782027,52.1009038 Z M989.5,40.0584283 C985.947901,40.0584283 983.058133,42.9481965 983.058133,46.5002957 C983.058133,50.0522471 985.947901,52.9418675 989.5,52.9418675 C993.052099,52.9418675 995.941867,50.0522471 995.941867,46.5002957 C995.941867,42.9481965 993.052099,40.0584283 989.5,40.0584283 Z M989.5,50.7235984 C987.171121,50.7235984 985.276254,48.8290272 985.276254,46.5001479 C985.276254,44.1711207 987.170973,42.2764016 989.5,42.2764016 C991.829027,42.2764016 993.723746,44.1711207 993.723746,46.5001479 C993.723746,48.8290272 991.828879,50.7235984 989.5,50.7235984 Z M996.212035,38.1776094 C995.784677,38.1776094 995.36486,38.3506228 995.063048,38.6537661 C994.759757,38.9554306 994.585412,39.3753948 994.585412,39.8042316 C994.585412,40.2317375 994.759905,40.6515539 995.063048,40.9546971 C995.364712,41.2563616 995.784677,41.4308538 996.212035,41.4308538 C996.640871,41.4308538 997.059357,41.2563616 997.3625,40.9546971 C997.665643,40.6515539 997.838657,40.2315896 997.838657,39.8042316 C997.838657,39.3753948 997.665643,38.9554306 997.3625,38.6537661 C997.060836,38.3506228 996.640871,38.1776094 996.212035,38.1776094 Z"
              transform="rotate(-3 989.5 46.5)"
            />
            <path
              d="M126.32965,171.297105 L118.264348,171.297105 C115.525412,171.297105 113.297105,173.525518 113.297105,176.264455 L113.297105,184.329756 C113.297105,187.068798 115.525412,189.297105 118.264348,189.297105 L126.32965,189.297105 C129.068798,189.297105 131.297105,187.068692 131.297105,184.329756 L131.297105,176.264455 C131.297212,173.525518 129.068798,171.297105 126.32965,171.297105 Z M129.700164,184.329756 C129.700164,186.188187 128.188187,187.700058 126.329756,187.700058 L118.264348,187.700058 C116.406024,187.700164 114.894152,186.188187 114.894152,184.329756 L114.894152,176.264455 C114.894152,174.40613 116.406024,172.894152 118.264348,172.894152 L126.32965,172.894152 C128.18808,172.894152 129.700058,174.40613 129.700058,176.264455 L129.700058,184.329756 L129.700164,184.329756 Z M122.297105,175.659174 C119.739594,175.659174 117.658961,177.739807 117.658961,180.297318 C117.658961,182.854723 119.739594,184.93525 122.297105,184.93525 C124.854617,184.93525 126.93525,182.854723 126.93525,180.297318 C126.93525,177.739807 124.854617,175.659174 122.297105,175.659174 Z M122.297105,183.338096 C120.620312,183.338096 119.256008,181.974005 119.256008,180.297212 C119.256008,178.620312 120.620206,177.256114 122.297105,177.256114 C123.974005,177.256114 125.338203,178.620312 125.338203,180.297212 C125.338203,181.974005 123.973898,183.338096 122.297105,183.338096 Z M127.12977,174.304984 C126.822072,174.304984 126.519805,174.429554 126.3025,174.647817 C126.08413,174.865015 125.958602,175.16739 125.958602,175.476152 C125.958602,175.783956 126.084237,176.086224 126.3025,176.304487 C126.519698,176.521686 126.822072,176.64732 127.12977,176.64732 C127.438533,176.64732 127.739842,176.521686 127.958105,176.304487 C128.176368,176.086224 128.300938,175.78385 128.300938,175.476152 C128.300938,175.16739 128.176368,174.865015 127.958105,174.647817 C127.740907,174.429554 127.438533,174.304984 127.12977,174.304984 Z"
              transform="rotate(9 122.297 180.297)"
            />
            <path
              d="M266.493182,128.356758 L260.220169,128.356758 C258.089886,128.356758 256.356758,130.089969 256.356758,132.220252 L256.356758,138.493265 C256.356758,140.623631 258.089886,142.356758 260.220169,142.356758 L266.493182,142.356758 C268.623631,142.356758 270.356758,140.623548 270.356758,138.493265 L270.356758,132.220252 C270.356841,130.089969 268.623631,128.356758 266.493182,128.356758 Z M269.114693,138.493265 C269.114693,139.938711 267.938711,141.114611 266.493265,141.114611 L260.220169,141.114611 C258.774806,141.114693 257.598906,139.938711 257.598906,138.493265 L257.598906,132.220252 C257.598906,130.774889 258.774806,129.598906 260.220169,129.598906 L266.493182,129.598906 C267.938628,129.598906 269.114611,130.774889 269.114611,132.220252 L269.114611,138.493265 L269.114693,138.493265 Z M263.356758,131.749478 C261.367583,131.749478 259.749313,133.367748 259.749313,135.356924 C259.749313,137.346017 261.367583,138.964204 263.356758,138.964204 C265.345934,138.964204 266.964204,137.346017 266.964204,135.356924 C266.964204,133.367748 265.345934,131.749478 263.356758,131.749478 Z M263.356758,137.721974 C262.052586,137.721974 260.99146,136.661014 260.99146,135.356841 C260.99146,134.052586 262.052503,132.991543 263.356758,132.991543 C264.661014,132.991543 265.722056,134.052586 265.722056,135.356841 C265.722056,136.661014 264.660931,137.721974 263.356758,137.721974 Z M267.115498,130.69622 C266.876177,130.69622 266.64108,130.793107 266.472065,130.962867 C266.302222,131.1318 266.204589,131.36698 266.204589,131.607128 C266.204589,131.846531 266.302305,132.081629 266.472065,132.251389 C266.640997,132.420321 266.876177,132.518037 267.115498,132.518037 C267.355646,132.518037 267.589998,132.420321 267.759759,132.251389 C267.929519,132.081629 268.026406,131.846449 268.026406,131.607128 C268.026406,131.36698 267.929519,131.1318 267.759759,130.962867 C267.590826,130.793107 267.355646,130.69622 267.115498,130.69622 Z"
              transform="rotate(-3 263.357 135.357)"
            />
            <path
              d="M22.1007559,282 L10.8989483,282 C7.09487052,282 4,285.095018 4,288.899096 L4,300.100904 C4,303.905129 7.09487052,307 10.8989483,307 L22.1007559,307 C25.9051295,307 29,303.904982 29,300.100904 L29,288.899096 C29.0001479,285.095018 25.9051295,282 22.1007559,282 Z M26.7820267,300.100904 C26.7820267,302.682057 24.6820575,304.781879 22.1009038,304.781879 L10.8989483,304.781879 C8.31794253,304.782027 6.21812116,302.682057 6.21812116,300.100904 L6.21812116,288.899096 C6.21812116,286.31809 8.31794253,284.218121 10.8989483,284.218121 L22.1007559,284.218121 C24.6819096,284.218121 26.7818788,286.31809 26.7818788,288.899096 L26.7818788,300.100904 L26.7820267,300.100904 Z M16.5,288.058428 C12.9479008,288.058428 10.0581325,290.948197 10.0581325,294.500296 C10.0581325,298.052247 12.9479008,300.941867 16.5,300.941867 C20.0520992,300.941867 22.9418675,298.052247 22.9418675,294.500296 C22.9418675,290.948197 20.0520992,288.058428 16.5,288.058428 Z M16.5,298.723598 C14.1711207,298.723598 12.2762537,296.829027 12.2762537,294.500148 C12.2762537,292.171121 14.1709728,290.276402 16.5,290.276402 C18.8290272,290.276402 20.7237463,292.171121 20.7237463,294.500148 C20.7237463,296.829027 18.8288793,298.723598 16.5,298.723598 Z M23.2120346,286.177609 C22.7846766,286.177609 22.3648602,286.350623 22.0630479,286.653766 C21.7597568,286.955431 21.5854125,287.375395 21.5854125,287.804232 C21.5854125,288.231737 21.7599047,288.651554 22.0630479,288.954697 C22.3647124,289.256362 22.7846766,289.430854 23.2120346,289.430854 C23.6408714,289.430854 24.0593569,289.256362 24.3625001,288.954697 C24.6656434,288.651554 24.8386568,288.23159 24.8386568,287.804232 C24.8386568,287.375395 24.6656434,286.955431 24.3625001,286.653766 C24.0608357,286.350623 23.6408714,286.177609 23.2120346,286.177609 Z"
              transform="rotate(-18 16.5 294.5)"
            />
            <path
              d="M387.237179,4 L369.762359,4 C363.827998,4 359,8.8282287 359,14.7625901 L359,32.2374099 C359,38.172002 363.827998,43 369.762359,43 L387.237179,43 C393.172002,43 398,38.1717713 398,32.2374099 L398,14.7625901 C398.000231,8.8282287 393.172002,4 387.237179,4 Z M394.539962,32.2374099 C394.539962,36.2640097 391.26401,39.539731 387.23741,39.539731 L369.762359,39.539731 C365.73599,39.5399617 362.460269,36.2640097 362.460269,32.2374099 L362.460269,14.7625901 C362.460269,10.736221 365.73599,7.46026901 369.762359,7.46026901 L387.237179,7.46026901 C391.263779,7.46026901 394.539731,10.736221 394.539731,14.7625901 L394.539731,32.2374099 L394.539962,32.2374099 Z M378.5,13.4511481 C372.958725,13.4511481 368.450687,17.9591866 368.450687,23.5004614 C368.450687,29.0415055 372.958725,33.5493133 378.5,33.5493133 C384.041275,33.5493133 388.549313,29.0415055 388.549313,23.5004614 C388.549313,17.9591866 384.041275,13.4511481 378.5,13.4511481 Z M378.5,30.0888136 C374.866948,30.0888136 371.910956,27.1332825 371.910956,23.5002307 C371.910956,19.8669482 374.866718,16.9111864 378.5,16.9111864 C382.133282,16.9111864 385.089044,19.8669482 385.089044,23.5002307 C385.089044,27.1332825 382.133052,30.0888136 378.5,30.0888136 Z M388.970774,10.5170707 C388.304096,10.5170707 387.649182,10.7869716 387.178355,11.2598751 C386.705221,11.7304717 386.433243,12.3856159 386.433243,13.0546013 C386.433243,13.7215105 386.705451,14.376424 387.178355,14.8493275 C387.648951,15.3199241 388.304096,15.5921319 388.970774,15.5921319 C389.639759,15.5921319 390.292597,15.3199241 390.7655,14.8493275 C391.238404,14.376424 391.508305,13.7212798 391.508305,13.0546013 C391.508305,12.3856159 391.238404,11.7304717 390.7655,11.2598751 C390.294904,10.7869716 389.639759,10.5170707 388.970774,10.5170707 Z"
              transform="rotate(-10 378.5 23.5)"
            />
            <path
              d="M222.341058,235 L206.658528,235 C201.332819,235 197,239.333026 197,244.658735 L197,260.341265 C197,265.667181 201.332819,270 206.658528,270 L222.341058,270 C227.667181,270 232,265.666974 232,260.341265 L232,244.658735 C232.000207,239.333026 227.667181,235 222.341058,235 Z M228.894837,260.341265 C228.894837,263.95488 225.95488,266.89463 222.341265,266.89463 L206.658528,266.89463 C203.04512,266.894837 200.10537,263.95488 200.10537,260.341265 L200.10537,244.658735 C200.10537,241.045327 203.04512,238.10537 206.658528,238.10537 L222.341058,238.10537 C225.954673,238.10537 228.89463,241.045327 228.89463,244.658735 L228.89463,260.341265 L228.894837,260.341265 Z M214.5,243.4818 C209.527061,243.4818 205.481386,247.527475 205.481386,252.500414 C205.481386,257.473146 209.527061,261.518614 214.5,261.518614 C219.472939,261.518614 223.518614,257.473146 223.518614,252.500414 C223.518614,247.527475 219.472939,243.4818 214.5,243.4818 Z M214.5,258.413038 C211.239569,258.413038 208.586755,255.760638 208.586755,252.500207 C208.586755,249.239569 211.239362,246.586962 214.5,246.586962 C217.760638,246.586962 220.413245,249.239569 220.413245,252.500207 C220.413245,255.760638 217.760431,258.413038 214.5,258.413038 Z M223.896848,240.848653 C223.298547,240.848653 222.710804,241.090872 222.288267,241.515273 C221.863659,241.937603 221.619577,242.525553 221.619577,243.125924 C221.619577,243.724432 221.863867,244.312175 222.288267,244.736576 C222.710597,245.158906 223.298547,245.403195 223.896848,245.403195 C224.49722,245.403195 225.0831,245.158906 225.5075,244.736576 C225.931901,244.312175 226.17412,243.724225 226.17412,243.125924 C226.17412,242.525553 225.931901,241.937603 225.5075,241.515273 C225.08517,241.090872 224.49722,240.848653 223.896848,240.848653 Z"
              transform="rotate(11 214.5 252.5)"
            />
          </g>
        </g>
      </svg>