 <svg xmlns="http://www.w3.org/2000/svg" width="308" height="550" viewBox="0 0 308 550">
        <g fill="#FFF" fill-rule="evenodd" transform="translate(-311 -2)">
          <g fill-rule="nonzero" opacity=".138" transform="translate(354)">
      
            <path
              d="M387.237179,4 L369.762359,4 C363.827998,4 359,8.8282287 359,14.7625901 L359,32.2374099 C359,38.172002 363.827998,43 369.762359,43 L387.237179,43 C393.172002,43 398,38.1717713 398,32.2374099 L398,14.7625901 C398.000231,8.8282287 393.172002,4 387.237179,4 Z M394.539962,32.2374099 C394.539962,36.2640097 391.26401,39.539731 387.23741,39.539731 L369.762359,39.539731 C365.73599,39.5399617 362.460269,36.2640097 362.460269,32.2374099 L362.460269,14.7625901 C362.460269,10.736221 365.73599,7.46026901 369.762359,7.46026901 L387.237179,7.46026901 C391.263779,7.46026901 394.539731,10.736221 394.539731,14.7625901 L394.539731,32.2374099 L394.539962,32.2374099 Z M378.5,13.4511481 C372.958725,13.4511481 368.450687,17.9591866 368.450687,23.5004614 C368.450687,29.0415055 372.958725,33.5493133 378.5,33.5493133 C384.041275,33.5493133 388.549313,29.0415055 388.549313,23.5004614 C388.549313,17.9591866 384.041275,13.4511481 378.5,13.4511481 Z M378.5,30.0888136 C374.866948,30.0888136 371.910956,27.1332825 371.910956,23.5002307 C371.910956,19.8669482 374.866718,16.9111864 378.5,16.9111864 C382.133282,16.9111864 385.089044,19.8669482 385.089044,23.5002307 C385.089044,27.1332825 382.133052,30.0888136 378.5,30.0888136 Z M388.970774,10.5170707 C388.304096,10.5170707 387.649182,10.7869716 387.178355,11.2598751 C386.705221,11.7304717 386.433243,12.3856159 386.433243,13.0546013 C386.433243,13.7215105 386.705451,14.376424 387.178355,14.8493275 C387.648951,15.3199241 388.304096,15.5921319 388.970774,15.5921319 C389.639759,15.5921319 390.292597,15.3199241 390.7655,14.8493275 C391.238404,14.376424 391.508305,13.7212798 391.508305,13.0546013 C391.508305,12.3856159 391.238404,11.7304717 390.7655,11.2598751 C390.294904,10.7869716 389.639759,10.5170707 388.970774,10.5170707 Z"
              transform="rotate(-10 708.5 1223.5)"
            />
          
            <path
              d="M126.32965,171.297105 L118.264348,171.297105 C115.525412,171.297105 113.297105,173.525518 113.297105,176.264455 L113.297105,184.329756 C113.297105,187.068798 115.525412,189.297105 118.264348,189.297105 L126.32965,189.297105 C129.068798,189.297105 131.297105,187.068692 131.297105,184.329756 L131.297105,176.264455 C131.297212,173.525518 129.068798,171.297105 126.32965,171.297105 Z M129.700164,184.329756 C129.700164,186.188187 128.188187,187.700058 126.329756,187.700058 L118.264348,187.700058 C116.406024,187.700164 114.894152,186.188187 114.894152,184.329756 L114.894152,176.264455 C114.894152,174.40613 116.406024,172.894152 118.264348,172.894152 L126.32965,172.894152 C128.18808,172.894152 129.700058,174.40613 129.700058,176.264455 L129.700058,184.329756 L129.700164,184.329756 Z M122.297105,175.659174 C119.739594,175.659174 117.658961,177.739807 117.658961,180.297318 C117.658961,182.854723 119.739594,184.93525 122.297105,184.93525 C124.854617,184.93525 126.93525,182.854723 126.93525,180.297318 C126.93525,177.739807 124.854617,175.659174 122.297105,175.659174 Z M122.297105,183.338096 C120.620312,183.338096 119.256008,181.974005 119.256008,180.297212 C119.256008,178.620312 120.620206,177.256114 122.297105,177.256114 C123.974005,177.256114 125.338203,178.620312 125.338203,180.297212 C125.338203,181.974005 123.973898,183.338096 122.297105,183.338096 Z M127.12977,174.304984 C126.822072,174.304984 126.519805,174.429554 126.3025,174.647817 C126.08413,174.865015 125.958602,175.16739 125.958602,175.476152 C125.958602,175.783956 126.084237,176.086224 126.3025,176.304487 C126.519698,176.521686 126.822072,176.64732 127.12977,176.64732 C127.438533,176.64732 127.739842,176.521686 127.958105,176.304487 C128.176368,176.086224 128.300938,175.78385 128.300938,175.476152 C128.300938,175.16739 128.176368,174.865015 127.958105,174.647817 C127.740907,174.429554 127.438533,174.304984 127.12977,174.304984 Z"
              transform="rotate(9 122.297 180.297)"
            />
            <path
              d="M266.493182,128.356758 L260.220169,128.356758 C258.089886,128.356758 256.356758,130.089969 256.356758,132.220252 L256.356758,138.493265 C256.356758,140.623631 258.089886,142.356758 260.220169,142.356758 L266.493182,142.356758 C268.623631,142.356758 270.356758,140.623548 270.356758,138.493265 L270.356758,132.220252 C270.356841,130.089969 268.623631,128.356758 266.493182,128.356758 Z M269.114693,138.493265 C269.114693,139.938711 267.938711,141.114611 266.493265,141.114611 L260.220169,141.114611 C258.774806,141.114693 257.598906,139.938711 257.598906,138.493265 L257.598906,132.220252 C257.598906,130.774889 258.774806,129.598906 260.220169,129.598906 L266.493182,129.598906 C267.938628,129.598906 269.114611,130.774889 269.114611,132.220252 L269.114611,138.493265 L269.114693,138.493265 Z M263.356758,131.749478 C261.367583,131.749478 259.749313,133.367748 259.749313,135.356924 C259.749313,137.346017 261.367583,138.964204 263.356758,138.964204 C265.345934,138.964204 266.964204,137.346017 266.964204,135.356924 C266.964204,133.367748 265.345934,131.749478 263.356758,131.749478 Z M263.356758,137.721974 C262.052586,137.721974 260.99146,136.661014 260.99146,135.356841 C260.99146,134.052586 262.052503,132.991543 263.356758,132.991543 C264.661014,132.991543 265.722056,134.052586 265.722056,135.356841 C265.722056,136.661014 264.660931,137.721974 263.356758,137.721974 Z M267.115498,130.69622 C266.876177,130.69622 266.64108,130.793107 266.472065,130.962867 C266.302222,131.1318 266.204589,131.36698 266.204589,131.607128 C266.204589,131.846531 266.302305,132.081629 266.472065,132.251389 C266.640997,132.420321 266.876177,132.518037 267.115498,132.518037 C267.355646,132.518037 267.589998,132.420321 267.759759,132.251389 C267.929519,132.081629 268.026406,131.846449 268.026406,131.607128 C268.026406,131.36698 267.929519,131.1318 267.759759,130.962867 C267.590826,130.793107 267.355646,130.69622 267.115498,130.69622 Z"
              transform="rotate(-3 263.357 135.357)"
            />
            <path
              d="M22.1007559,282 L10.8989483,282 C7.09487052,282 4,285.095018 4,288.899096 L4,300.100904 C4,303.905129 7.09487052,307 10.8989483,307 L22.1007559,307 C25.9051295,307 29,303.904982 29,300.100904 L29,288.899096 C29.0001479,285.095018 25.9051295,282 22.1007559,282 Z M26.7820267,300.100904 C26.7820267,302.682057 24.6820575,304.781879 22.1009038,304.781879 L10.8989483,304.781879 C8.31794253,304.782027 6.21812116,302.682057 6.21812116,300.100904 L6.21812116,288.899096 C6.21812116,286.31809 8.31794253,284.218121 10.8989483,284.218121 L22.1007559,284.218121 C24.6819096,284.218121 26.7818788,286.31809 26.7818788,288.899096 L26.7818788,300.100904 L26.7820267,300.100904 Z M16.5,288.058428 C12.9479008,288.058428 10.0581325,290.948197 10.0581325,294.500296 C10.0581325,298.052247 12.9479008,300.941867 16.5,300.941867 C20.0520992,300.941867 22.9418675,298.052247 22.9418675,294.500296 C22.9418675,290.948197 20.0520992,288.058428 16.5,288.058428 Z M16.5,298.723598 C14.1711207,298.723598 12.2762537,296.829027 12.2762537,294.500148 C12.2762537,292.171121 14.1709728,290.276402 16.5,290.276402 C18.8290272,290.276402 20.7237463,292.171121 20.7237463,294.500148 C20.7237463,296.829027 18.8288793,298.723598 16.5,298.723598 Z M23.2120346,286.177609 C22.7846766,286.177609 22.3648602,286.350623 22.0630479,286.653766 C21.7597568,286.955431 21.5854125,287.375395 21.5854125,287.804232 C21.5854125,288.231737 21.7599047,288.651554 22.0630479,288.954697 C22.3647124,289.256362 22.7846766,289.430854 23.2120346,289.430854 C23.6408714,289.430854 24.0593569,289.256362 24.3625001,288.954697 C24.6656434,288.651554 24.8386568,288.23159 24.8386568,287.804232 C24.8386568,287.375395 24.6656434,286.955431 24.3625001,286.653766 C24.0608357,286.350623 23.6408714,286.177609 23.2120346,286.177609 Z"
              transform="rotate(-18 16.5 294.5)"
            />
            <path
              d="M222.341058,235 L206.658528,235 C201.332819,235 197,239.333026 197,244.658735 L197,260.341265 C197,265.667181 201.332819,270 206.658528,270 L222.341058,270 C227.667181,270 232,265.666974 232,260.341265 L232,244.658735 C232.000207,239.333026 227.667181,235 222.341058,235 Z M228.894837,260.341265 C228.894837,263.95488 225.95488,266.89463 222.341265,266.89463 L206.658528,266.89463 C203.04512,266.894837 200.10537,263.95488 200.10537,260.341265 L200.10537,244.658735 C200.10537,241.045327 203.04512,238.10537 206.658528,238.10537 L222.341058,238.10537 C225.954673,238.10537 228.89463,241.045327 228.89463,244.658735 L228.89463,260.341265 L228.894837,260.341265 Z M214.5,243.4818 C209.527061,243.4818 205.481386,247.527475 205.481386,252.500414 C205.481386,257.473146 209.527061,261.518614 214.5,261.518614 C219.472939,261.518614 223.518614,257.473146 223.518614,252.500414 C223.518614,247.527475 219.472939,243.4818 214.5,243.4818 Z M214.5,258.413038 C211.239569,258.413038 208.586755,255.760638 208.586755,252.500207 C208.586755,249.239569 211.239362,246.586962 214.5,246.586962 C217.760638,246.586962 220.413245,249.239569 220.413245,252.500207 C220.413245,255.760638 217.760431,258.413038 214.5,258.413038 Z M223.896848,240.848653 C223.298547,240.848653 222.710804,241.090872 222.288267,241.515273 C221.863659,241.937603 221.619577,242.525553 221.619577,243.125924 C221.619577,243.724432 221.863867,244.312175 222.288267,244.736576 C222.710597,245.158906 223.298547,245.403195 223.896848,245.403195 C224.49722,245.403195 225.0831,245.158906 225.5075,244.736576 C225.931901,244.312175 226.17412,243.724225 226.17412,243.125924 C226.17412,242.525553 225.931901,241.937603 225.5075,241.515273 C225.08517,241.090872 224.49722,240.848653 223.896848,240.848653 Z"
              transform="rotate(11 214.5 252.5)"
            />







 

            
            <path
              d="M387.237179,4 L369.762359,4 C363.827998,4 359,8.8282287 359,14.7625901 L359,32.2374099 C359,38.172002 363.827998,43 369.762359,43 L387.237179,43 C393.172002,43 398,38.1717713 398,32.2374099 L398,14.7625901 C398.000231,8.8282287 393.172002,4 387.237179,4 Z M394.539962,32.2374099 C394.539962,36.2640097 391.26401,39.539731 387.23741,39.539731 L369.762359,39.539731 C365.73599,39.5399617 362.460269,36.2640097 362.460269,32.2374099 L362.460269,14.7625901 C362.460269,10.736221 365.73599,7.46026901 369.762359,7.46026901 L387.237179,7.46026901 C391.263779,7.46026901 394.539731,10.736221 394.539731,14.7625901 L394.539731,32.2374099 L394.539962,32.2374099 Z M378.5,13.4511481 C372.958725,13.4511481 368.450687,17.9591866 368.450687,23.5004614 C368.450687,29.0415055 372.958725,33.5493133 378.5,33.5493133 C384.041275,33.5493133 388.549313,29.0415055 388.549313,23.5004614 C388.549313,17.9591866 384.041275,13.4511481 378.5,13.4511481 Z M378.5,30.0888136 C374.866948,30.0888136 371.910956,27.1332825 371.910956,23.5002307 C371.910956,19.8669482 374.866718,16.9111864 378.5,16.9111864 C382.133282,16.9111864 385.089044,19.8669482 385.089044,23.5002307 C385.089044,27.1332825 382.133052,30.0888136 378.5,30.0888136 Z M388.970774,10.5170707 C388.304096,10.5170707 387.649182,10.7869716 387.178355,11.2598751 C386.705221,11.7304717 386.433243,12.3856159 386.433243,13.0546013 C386.433243,13.7215105 386.705451,14.376424 387.178355,14.8493275 C387.648951,15.3199241 388.304096,15.5921319 388.970774,15.5921319 C389.639759,15.5921319 390.292597,15.3199241 390.7655,14.8493275 C391.238404,14.376424 391.508305,13.7212798 391.508305,13.0546013 C391.508305,12.3856159 391.238404,11.7304717 390.7655,11.2598751 C390.294904,10.7869716 389.639759,10.5170707 388.970774,10.5170707 Z"
              transform="rotate(-10 2208.5 1223.5)"
            />
          
            <path
              d="M126.32965,171.297105 L118.264348,171.297105 C115.525412,171.297105 113.297105,173.525518 113.297105,176.264455 L113.297105,184.329756 C113.297105,187.068798 115.525412,189.297105 118.264348,189.297105 L126.32965,189.297105 C129.068798,189.297105 131.297105,187.068692 131.297105,184.329756 L131.297105,176.264455 C131.297212,173.525518 129.068798,171.297105 126.32965,171.297105 Z M129.700164,184.329756 C129.700164,186.188187 128.188187,187.700058 126.329756,187.700058 L118.264348,187.700058 C116.406024,187.700164 114.894152,186.188187 114.894152,184.329756 L114.894152,176.264455 C114.894152,174.40613 116.406024,172.894152 118.264348,172.894152 L126.32965,172.894152 C128.18808,172.894152 129.700058,174.40613 129.700058,176.264455 L129.700058,184.329756 L129.700164,184.329756 Z M122.297105,175.659174 C119.739594,175.659174 117.658961,177.739807 117.658961,180.297318 C117.658961,182.854723 119.739594,184.93525 122.297105,184.93525 C124.854617,184.93525 126.93525,182.854723 126.93525,180.297318 C126.93525,177.739807 124.854617,175.659174 122.297105,175.659174 Z M122.297105,183.338096 C120.620312,183.338096 119.256008,181.974005 119.256008,180.297212 C119.256008,178.620312 120.620206,177.256114 122.297105,177.256114 C123.974005,177.256114 125.338203,178.620312 125.338203,180.297212 C125.338203,181.974005 123.973898,183.338096 122.297105,183.338096 Z M127.12977,174.304984 C126.822072,174.304984 126.519805,174.429554 126.3025,174.647817 C126.08413,174.865015 125.958602,175.16739 125.958602,175.476152 C125.958602,175.783956 126.084237,176.086224 126.3025,176.304487 C126.519698,176.521686 126.822072,176.64732 127.12977,176.64732 C127.438533,176.64732 127.739842,176.521686 127.958105,176.304487 C128.176368,176.086224 128.300938,175.78385 128.300938,175.476152 C128.300938,175.16739 128.176368,174.865015 127.958105,174.647817 C127.740907,174.429554 127.438533,174.304984 127.12977,174.304984 Z"
              transform="rotate(9 122.297 180.297)"
            />
            <path
              d="M266.493182,128.356758 L260.220169,128.356758 C258.089886,128.356758 256.356758,130.089969 256.356758,132.220252 L256.356758,138.493265 C256.356758,140.623631 258.089886,142.356758 260.220169,142.356758 L266.493182,142.356758 C268.623631,142.356758 270.356758,140.623548 270.356758,138.493265 L270.356758,132.220252 C270.356841,130.089969 268.623631,128.356758 266.493182,128.356758 Z M269.114693,138.493265 C269.114693,139.938711 267.938711,141.114611 266.493265,141.114611 L260.220169,141.114611 C258.774806,141.114693 257.598906,139.938711 257.598906,138.493265 L257.598906,132.220252 C257.598906,130.774889 258.774806,129.598906 260.220169,129.598906 L266.493182,129.598906 C267.938628,129.598906 269.114611,130.774889 269.114611,132.220252 L269.114611,138.493265 L269.114693,138.493265 Z M263.356758,131.749478 C261.367583,131.749478 259.749313,133.367748 259.749313,135.356924 C259.749313,137.346017 261.367583,138.964204 263.356758,138.964204 C265.345934,138.964204 266.964204,137.346017 266.964204,135.356924 C266.964204,133.367748 265.345934,131.749478 263.356758,131.749478 Z M263.356758,137.721974 C262.052586,137.721974 260.99146,136.661014 260.99146,135.356841 C260.99146,134.052586 262.052503,132.991543 263.356758,132.991543 C264.661014,132.991543 265.722056,134.052586 265.722056,135.356841 C265.722056,136.661014 264.660931,137.721974 263.356758,137.721974 Z M267.115498,130.69622 C266.876177,130.69622 266.64108,130.793107 266.472065,130.962867 C266.302222,131.1318 266.204589,131.36698 266.204589,131.607128 C266.204589,131.846531 266.302305,132.081629 266.472065,132.251389 C266.640997,132.420321 266.876177,132.518037 267.115498,132.518037 C267.355646,132.518037 267.589998,132.420321 267.759759,132.251389 C267.929519,132.081629 268.026406,131.846449 268.026406,131.607128 C268.026406,131.36698 267.929519,131.1318 267.759759,130.962867 C267.590826,130.793107 267.355646,130.69622 267.115498,130.69622 Z"
              transform="rotate(-3 4263.357 135.357)"
            />
            <path
              d="M22.1007559,282 L10.8989483,282 C7.09487052,282 4,285.095018 4,288.899096 L4,300.100904 C4,303.905129 7.09487052,307 10.8989483,307 L22.1007559,307 C25.9051295,307 29,303.904982 29,300.100904 L29,288.899096 C29.0001479,285.095018 25.9051295,282 22.1007559,282 Z M26.7820267,300.100904 C26.7820267,302.682057 24.6820575,304.781879 22.1009038,304.781879 L10.8989483,304.781879 C8.31794253,304.782027 6.21812116,302.682057 6.21812116,300.100904 L6.21812116,288.899096 C6.21812116,286.31809 8.31794253,284.218121 10.8989483,284.218121 L22.1007559,284.218121 C24.6819096,284.218121 26.7818788,286.31809 26.7818788,288.899096 L26.7818788,300.100904 L26.7820267,300.100904 Z M16.5,288.058428 C12.9479008,288.058428 10.0581325,290.948197 10.0581325,294.500296 C10.0581325,298.052247 12.9479008,300.941867 16.5,300.941867 C20.0520992,300.941867 22.9418675,298.052247 22.9418675,294.500296 C22.9418675,290.948197 20.0520992,288.058428 16.5,288.058428 Z M16.5,298.723598 C14.1711207,298.723598 12.2762537,296.829027 12.2762537,294.500148 C12.2762537,292.171121 14.1709728,290.276402 16.5,290.276402 C18.8290272,290.276402 20.7237463,292.171121 20.7237463,294.500148 C20.7237463,296.829027 18.8288793,298.723598 16.5,298.723598 Z M23.2120346,286.177609 C22.7846766,286.177609 22.3648602,286.350623 22.0630479,286.653766 C21.7597568,286.955431 21.5854125,287.375395 21.5854125,287.804232 C21.5854125,288.231737 21.7599047,288.651554 22.0630479,288.954697 C22.3647124,289.256362 22.7846766,289.430854 23.2120346,289.430854 C23.6408714,289.430854 24.0593569,289.256362 24.3625001,288.954697 C24.6656434,288.651554 24.8386568,288.23159 24.8386568,287.804232 C24.8386568,287.375395 24.6656434,286.955431 24.3625001,286.653766 C24.0608357,286.350623 23.6408714,286.177609 23.2120346,286.177609 Z"
              transform="rotate(-18 616.5 294.5)"
            />
            <path
              d="M22.1007559,282 L10.8989483,282 C7.09487052,282 4,285.095018 4,288.899096 L4,300.100904 C4,303.905129 7.09487052,307 10.8989483,307 L22.1007559,307 C25.9051295,307 29,303.904982 29,300.100904 L29,288.899096 C29.0001479,285.095018 25.9051295,282 22.1007559,282 Z M26.7820267,300.100904 C26.7820267,302.682057 24.6820575,304.781879 22.1009038,304.781879 L10.8989483,304.781879 C8.31794253,304.782027 6.21812116,302.682057 6.21812116,300.100904 L6.21812116,288.899096 C6.21812116,286.31809 8.31794253,284.218121 10.8989483,284.218121 L22.1007559,284.218121 C24.6819096,284.218121 26.7818788,286.31809 26.7818788,288.899096 L26.7818788,300.100904 L26.7820267,300.100904 Z M16.5,288.058428 C12.9479008,288.058428 10.0581325,290.948197 10.0581325,294.500296 C10.0581325,298.052247 12.9479008,300.941867 16.5,300.941867 C20.0520992,300.941867 22.9418675,298.052247 22.9418675,294.500296 C22.9418675,290.948197 20.0520992,288.058428 16.5,288.058428 Z M16.5,298.723598 C14.1711207,298.723598 12.2762537,296.829027 12.2762537,294.500148 C12.2762537,292.171121 14.1709728,290.276402 16.5,290.276402 C18.8290272,290.276402 20.7237463,292.171121 20.7237463,294.500148 C20.7237463,296.829027 18.8288793,298.723598 16.5,298.723598 Z M23.2120346,286.177609 C22.7846766,286.177609 22.3648602,286.350623 22.0630479,286.653766 C21.7597568,286.955431 21.5854125,287.375395 21.5854125,287.804232 C21.5854125,288.231737 21.7599047,288.651554 22.0630479,288.954697 C22.3647124,289.256362 22.7846766,289.430854 23.2120346,289.430854 C23.6408714,289.430854 24.0593569,289.256362 24.3625001,288.954697 C24.6656434,288.651554 24.8386568,288.23159 24.8386568,287.804232 C24.8386568,287.375395 24.6656434,286.955431 24.3625001,286.653766 C24.0608357,286.350623 23.6408714,286.177609 23.2120346,286.177609 Z"
              transform="rotate(-18 616.5 494.5)"
            />
            <path
              d="M222.341058,235 L206.658528,235 C201.332819,235 197,239.333026 197,244.658735 L197,260.341265 C197,265.667181 201.332819,270 206.658528,270 L222.341058,270 C227.667181,270 232,265.666974 232,260.341265 L232,244.658735 C232.000207,239.333026 227.667181,235 222.341058,235 Z M228.894837,260.341265 C228.894837,263.95488 225.95488,266.89463 222.341265,266.89463 L206.658528,266.89463 C203.04512,266.894837 200.10537,263.95488 200.10537,260.341265 L200.10537,244.658735 C200.10537,241.045327 203.04512,238.10537 206.658528,238.10537 L222.341058,238.10537 C225.954673,238.10537 228.89463,241.045327 228.89463,244.658735 L228.89463,260.341265 L228.894837,260.341265 Z M214.5,243.4818 C209.527061,243.4818 205.481386,247.527475 205.481386,252.500414 C205.481386,257.473146 209.527061,261.518614 214.5,261.518614 C219.472939,261.518614 223.518614,257.473146 223.518614,252.500414 C223.518614,247.527475 219.472939,243.4818 214.5,243.4818 Z M214.5,258.413038 C211.239569,258.413038 208.586755,255.760638 208.586755,252.500207 C208.586755,249.239569 211.239362,246.586962 214.5,246.586962 C217.760638,246.586962 220.413245,249.239569 220.413245,252.500207 C220.413245,255.760638 217.760431,258.413038 214.5,258.413038 Z M223.896848,240.848653 C223.298547,240.848653 222.710804,241.090872 222.288267,241.515273 C221.863659,241.937603 221.619577,242.525553 221.619577,243.125924 C221.619577,243.724432 221.863867,244.312175 222.288267,244.736576 C222.710597,245.158906 223.298547,245.403195 223.896848,245.403195 C224.49722,245.403195 225.0831,245.158906 225.5075,244.736576 C225.931901,244.312175 226.17412,243.724225 226.17412,243.125924 C226.17412,242.525553 225.931901,241.937603 225.5075,241.515273 C225.08517,241.090872 224.49722,240.848653 223.896848,240.848653 Z"
              transform="rotate(11 -1214.5 252.5)"
            />
            <path
              d="M222.341058,235 L206.658528,235 C201.332819,235 197,239.333026 197,244.658735 L197,260.341265 C197,265.667181 201.332819,270 206.658528,270 L222.341058,270 C227.667181,270 232,265.666974 232,260.341265 L232,244.658735 C232.000207,239.333026 227.667181,235 222.341058,235 Z M228.894837,260.341265 C228.894837,263.95488 225.95488,266.89463 222.341265,266.89463 L206.658528,266.89463 C203.04512,266.894837 200.10537,263.95488 200.10537,260.341265 L200.10537,244.658735 C200.10537,241.045327 203.04512,238.10537 206.658528,238.10537 L222.341058,238.10537 C225.954673,238.10537 228.89463,241.045327 228.89463,244.658735 L228.89463,260.341265 L228.894837,260.341265 Z M214.5,243.4818 C209.527061,243.4818 205.481386,247.527475 205.481386,252.500414 C205.481386,257.473146 209.527061,261.518614 214.5,261.518614 C219.472939,261.518614 223.518614,257.473146 223.518614,252.500414 C223.518614,247.527475 219.472939,243.4818 214.5,243.4818 Z M214.5,258.413038 C211.239569,258.413038 208.586755,255.760638 208.586755,252.500207 C208.586755,249.239569 211.239362,246.586962 214.5,246.586962 C217.760638,246.586962 220.413245,249.239569 220.413245,252.500207 C220.413245,255.760638 217.760431,258.413038 214.5,258.413038 Z M223.896848,240.848653 C223.298547,240.848653 222.710804,241.090872 222.288267,241.515273 C221.863659,241.937603 221.619577,242.525553 221.619577,243.125924 C221.619577,243.724432 221.863867,244.312175 222.288267,244.736576 C222.710597,245.158906 223.298547,245.403195 223.896848,245.403195 C224.49722,245.403195 225.0831,245.158906 225.5075,244.736576 C225.931901,244.312175 226.17412,243.724225 226.17412,243.125924 C226.17412,242.525553 225.931901,241.937603 225.5075,241.515273 C225.08517,241.090872 224.49722,240.848653 223.896848,240.848653 Z"
              transform="rotate(11 614.5 -832.5)"
            />
          </g>
        </g>
      </svg>